<svg width="256" height="256" viewBox="0 0 256 256" fill="none" xmlns="http://www.w3.org/2000/svg">
  <defs>
    <linearGradient id="bgGradient" x1="36" y1="28" x2="220" y2="228" gradientUnits="userSpaceOnUse">
      <stop offset="0" stop-color="#0E1B31" />
      <stop offset="1" stop-color="#08111F" />
    </linearGradient>
    <linearGradient id="accentGradient" x1="64" y1="52" x2="192" y2="200" gradientUnits="userSpaceOnUse">
      <stop offset="0" stop-color="#76F0D6" />
      <stop offset="0.55" stop-color="#49D3BA" />
      <stop offset="1" stop-color="#FF9B67" />
    </linearGradient>
    <radialGradient id="glowTop" cx="0" cy="0" r="1" gradientUnits="userSpaceOnUse" gradientTransform="translate(82 66) rotate(47.7263) scale(119.345)">
      <stop stop-color="#76F0D6" stop-opacity="0.34" />
      <stop offset="1" stop-color="#76F0D6" stop-opacity="0" />
    </radialGradient>
    <radialGradient id="glowBottom" cx="0" cy="0" r="1" gradientUnits="userSpaceOnUse" gradientTransform="translate(190 196) rotate(180) scale(114 114)">
      <stop stop-color="#FF9B67" stop-opacity="0.28" />
      <stop offset="1" stop-color="#FF9B67" stop-opacity="0" />
    </radialGradient>
    <filter id="softGlow" x="28" y="29" width="200" height="198" filterUnits="userSpaceOnUse" color-interpolation-filters="sRGB">
      <feFlood flood-opacity="0" result="BackgroundImageFix" />
      <feBlend mode="normal" in="SourceGraphic" in2="BackgroundImageFix" result="shape" />
      <feGaussianBlur stdDeviation="7" result="effect1_foregroundBlur" />
    </filter>
  </defs>

  <rect x="16" y="16" width="224" height="224" rx="56" fill="url(#bgGradient)" />
  <rect x="16.75" y="16.75" width="222.5" height="222.5" rx="55.25" stroke="#FFFFFF" stroke-opacity="0.10" />

  <circle cx="82" cy="66" r="92" fill="url(#glowTop)" />
  <circle cx="190" cy="196" r="82" fill="url(#glowBottom)" />

  <g filter="url(#softGlow)">
    <polygon
      points="128,46 183,78 183,142 128,174 73,142 73,78"
      fill="none"
      stroke="url(#accentGradient)"
      stroke-width="10"
      stroke-linejoin="round"
    />
    <path
      d="M101 82V165M101 124L151 82M101 124L151 165"
      stroke="url(#accentGradient)"
      stroke-width="16"
      stroke-linecap="round"
      stroke-linejoin="round"
    />
    <circle cx="164" cy="124" r="9" fill="url(#accentGradient)" />
  </g>
</svg>
